{"title":"Lincoln-720p MP4 AAC x264 BRRip 2012-CC","uid":8237052,"size":3644902335,"categoryP":"video","categoryS":"hd___movies","magnet":"?xt=urn:btih:0c9f1fb8421844df0248406107cfd3f9a0ffd7fb&amp;dn=Lincoln-720p+MP4+AAC+x264+BRRip+2012-CC&amp;tr=udp%3A%2F%2Ftracker.openbittorrent.com%3A80&amp;tr=udp%3A%2F%2Fopen.demonii.com%3A1337&amp;tr=udp%3A%2F%2Ftracker.coppersurfer.tk%3A6969&amp;tr=udp%3A%2F%2Fexodus.desync.com%3A6969","seeders":1,"leechers":0,"uploader":"Caveman44","files":-1,"time":1362861219,"description":" &lt;a href=&quot;http://www.imdb.com/title/tt0443272/&quot; rel=&quot;nofollow&quot; target=&quot;_NEW&quot;&gt;http://www.imdb.com/title/tt0443272/&lt;/a&gt;\n\nSource: Lincoln.2012.720p.BluRay.x264-SPARKS Thanks!\n\nSubs: Arabic, Brazilian, Dutch, English, Farsi-Persian, Greek, Hebrew, Indonesian, Italian, Portuguese, Servian, Spanish, Vietnamese.\n\nSample and Screens included.\n\nGeneral\nComplete name                            : Lincoln-720p MP4 AAC x264 BRRip 2012-CC.mp4\nFormat                                   : MPEG-4\nFormat profile                           : Base Media\nCodec ID                                 : isom\nFile size                                : 3.36 GiB\nDuration                                 : 2h 29mn\nOverall bit rate mode                    : Variable\nOverall bit rate                         : 3 204 Kbps\nEncoded date                             : UTC 2013-03-08 07:13:38\n\nVideo\nID                                       : 1\nFormat                                   : AVC\nFormat/Info                              : Advanced Video Codec\nFormat profile                           : &lt;a class=&quot;__cf_email__&quot; href=&quot;/cdn-cgi/l/email-protection&quot; data-cfemail=&quot;98d0f1fff0d8d4acb6a9&quot;&gt;[email&amp;#160;protected]&lt;/a&gt;&lt;script cf-hash='f9e31' type=&quot;text/javascript&quot;&gt;\n/* &lt;![CDATA[ */!function(){try{var t=&quot;currentScript&quot;in document?document.currentScript:function(){for(var t=document.getElementsByTagName(&quot;script&quot;),e=t.length;e--;)if(t[e].getAttribute(&quot;cf-hash&quot;))return t[e]}();if(t&amp;&amp;t.previousSibling){var e,r,n,i,c=t.previousSibling,a=c.getAttribute(&quot;data-cfemail&quot;);if(a){for(e=&quot;&quot;,r=parseInt(a.substr(0,2),16),n=2;a.length-n;n+=2)i=parseInt(a.substr(n,2),16)^r,e+=String.fromCharCode(i);e=document.createTextNode(e),c.parentNode.replaceChild(e,c)}}}catch(u){}}();/* ]]&gt; */&lt;/script&gt;\nFormat settings, CABAC                   : Yes\nFormat settings, ReFrames                : 5 frames\nCodec ID                                 : avc1\nCodec ID/Info                            : Advanced Video Coding\nDuration                                 : 2h 29mn\nBit rate                                 : 2 838 Kbps\nMaximum bit rate                         : 38.9 Mbps\nWidth                                    : 1 280 pixels\nHeight                                   : 536 pixels\nDisplay aspect ratio                     : 2.40:1\nFrame rate mode                          : Variable\nFrame rate                               : 23.976 fps\nMinimum frame rate                       : 19.048 fps\nMaximum frame rate                       : 25.000 fps\nColor space                              : YUV\nChroma subsampling                       : 4:2:0\nBit depth                                : 8 bits\nScan type                                : Progressive\nBits/(Pixel*Frame)                       : 0.173\nStream size                              : 2.95 GiB (88%)\nWriting library                          : x264 core 112\n\nAudio\nID                                       : 2\nFormat                                   : AAC\nFormat/Info                              : Advanced Audio Codec\nFormat profile                           : LC\nCodec ID                                 : 40\nDuration                                 : 2h 29mn\nBit rate mode                            : Variable\nBit rate                                 : 384 Kbps\nMaximum bit rate                         : 729 Kbps\nChannel(s)                               : 6 channels\nChannel positions                        : Front: L C R, Side: L R, LFE\nSampling rate                            : 48.0 KHz\nCompression mode                         : Lossy\nDelay relative to video                  : 83ms\nStream size                              : 410 MiB (12%)\nLanguage                                 : English\n\nEnjoy...\n\nComing soon: Vertigo, Tropa de Elite, The Red Baron and more...","torrent":{"xt":"urn:btih:0c9f1fb8421844df0248406107cfd3f9a0ffd7fb","amp;dn":"Lincoln-720p+MP4+AAC+x264+BRRip+2012-CC","amp;tr":["udp%3A%2F%2Ftracker.openbittorrent.com%3A80","udp%3A%2F%2Fopen.demonii.com%3A1337","udp%3A%2F%2Ftracker.coppersurfer.tk%3A6969","udp%3A%2F%2Fexodus.desync.com%3A6969"],"infoHash":"0c9f1fb8421844df0248406107cfd3f9a0ffd7fb","infoHashBuffer":{"type":"Buffer","data":[12,159,31,184,66,24,68,223,2,72,64,97,7,207,211,249,160,255,215,251]},"announce":[],"urlList":[]}}